<?xml version="1.0" standalone="no"?>
<!DOCTYPE svg PUBLIC "-//W3C//DTD SVG 20010904//EN"
 "http://www.w3.org/TR/2001/REC-SVG-20010904/DTD/svg10.dtd">
<svg version="1.0" xmlns="http://www.w3.org/2000/svg"
 width="500.000000pt" height="500.000000pt" viewBox="0 0 500.000000 500.000000"
 preserveAspectRatio="xMidYMid meet">
<metadata>
Created by potrace 1.11, written by Peter Selinger 2001-2013
</metadata>
<g transform="translate(0.000000,500.000000) scale(0.100000,-0.100000)"
fill="#000000" stroke="none">
<path d="M2265 4984 c-359 -39 -702 -148 -995 -316 -692 -397 -1141 -1068
-1245 -1861 -20 -153 -20 -455 0 -616 54 -433 219 -840 486 -1198 94 -125 356
-387 479 -479 373 -278 788 -444 1235 -494 118 -13 431 -13 553 1 565 61 1111
330 1512 745 386 399 622 897 686 1450 20 168 14 504 -11 659 -86 536 -324
1004 -705 1385 -375 376 -830 610 -1364 701 -94 16 -174 22 -356 24 -129 2
-253 1 -275 -1z m-39 -581 c2 -49 6 -115 9 -148 l4 -60 -92 7 c-51 3 -100 7
-111 7 -15 1 -17 6 -12 33 9 46 83 172 135 230 54 61 60 55 67 -69z m915 -160
c38 -56 69 -106 69 -112 0 -7 -22 -11 -54 -11 -29 0 -81 -3 -115 -6 l-61 -7 0
125 c0 69 3 140 6 157 l7 32 39 -38 c22 -21 70 -84 109 -140z m-914 -82 c44
-22 104 -83 126 -126 24 -49 95 -276 127 -407 82 -337 76 -512 -26 -680 -99
-163 -257 -243 -505 -255 -91 -4 -127 -2 -175 11 -143 41 -237 150 -287 331
-28 105 -36 410 -13 525 35 170 108 316 219 436 88 95 132 117 367 183 48 14
121 6 167 -18z m1016 -88 c225 -70 417 -378 456 -728 20 -176 -14 -406 -79
-535 -62 -122 -151 -194 -261 -209 -85 -11 -278 4 -359 28 -157 48 -284 173
-340 335 -53 155 -48 313 15 494 18 53 57 175 85 271 28 96 57 188 64 205 56
133 241 195 419 139z m-2159 -631 c25 -37 62 -182 52 -207 -2 -6 -29 -17 -60
-24 -30 -7 -66 -21 -78 -32 -21 -18 -21 -20 -3 -14 11 3 53 11 95 17 119 17
135 6 203 -134 44 -89 73 -132 139 -207 201 -227 238 -295 238 -446 0 -143
-41 -226 -170 -347 -71 -67 -116 -100 -179 -131 -78 -39 -90 -42 -165 -42
-170 0 -279 91 -392 329 -90 190 -110 354 -70 561 33 172 72 230 246 367 19
15 21 21 11 28 -12 7 -12 19 -2 72 22 112 77 248 101 248 4 0 19 -17 34 -38z
m3068 -349 c26 -30 53 -305 32 -326 -4 -4 -176 79 -202 99 -5 4 109 213 125
229 19 19 27 19 45 -2z m-61 -309 c75 -41 151 -121 189 -198 28 -56 33 -80 37
-159 6 -130 -17 -280 -56 -360 -17 -35 -31 -72 -31 -83 0 -22 -65 -127 -119
-193 -50 -62 -168 -153 -248 -193 -58 -28 -78 -33 -138 -32 -92 0 -163 35
-262 128 -160 149 -228 299 -203 444 17 96 53 165 134 250 91 96 436 392 484
415 54 26 144 18 213 -19z m-1545 -244 c117 -30 180 -65 254 -139 54 -54 79
-93 139 -208 147 -287 233 -407 411 -574 101 -95 127 -126 156 -184 46 -94 57
-164 51 -320 -7 -204 -56 -328 -179 -461 -174 -186 -367 -229 -637 -140 -62
21 -166 60 -230 88 -203 87 -291 95 -537 53 -157 -27 -378 -34 -463 -14 -83
19 -154 60 -227 133 -59 59 -80 89 -122 176 -65 137 -72 165 -72 292 0 94 4
121 36 225 63 207 111 275 245 343 187 95 368 241 533 431 163 187 206 228
246 235 19 4 49 18 66 30 74 57 193 69 330 34z"/>
</g>
</svg>
